<!-- Generated by IcoMoon.io -->
<svg version="1.1" xmlns="http://www.w3.org/2000/svg" width="32" height="32" viewBox="0 0 32 32">
<title>Methods</title>
<path fill="#ff6b09" d="M29.457 0.256h-15.371c-1.001 0-1.815 0.814-1.815 1.815v6.363l-11.419 4.793c-0.129 0.054-0.217 0.176-0.227 0.316s0.059 0.274 0.18 0.346l1.456 0.872v9.288c-0.745 0.17-1.304 0.836-1.304 1.634v0.895c0 0.205 0.167 0.372 0.372 0.372h2.608c0.205 0 0.372-0.167 0.372-0.372v-0.895c0-0.796-0.559-1.462-1.304-1.633v-8.844l1.151 0.689c-0.035 0.266-0.004-0.463-0.016 4.324 0 1.574 4.031 2.417 8.132 2.465v7.249c0 0.374 0.115 0.723 0.311 1.012 0.326 0.482 0.878 0.8 1.503 0.8h15.371c1 0 1.813-0.814 1.813-1.813 0 0.050-0.002-1.535 0-27.86 0-0.987-0.816-1.815-1.812-1.815zM3.565 25.682v0.523h-1.864v-0.523c0-0.515 0.417-0.935 0.93-0.935 0.515 0 0.934 0.419 0.934 0.935zM29.457 30.998h-15.371c-0.369 0-0.695-0.187-0.887-0.47-0.115-0.171-0.183-0.376-0.183-0.597v-2.513h17.508v2.514c0 0.582-0.485 1.066-1.066 1.066zM30.523 26.675h-17.508v-3.989c2.002-0.023 8.137-0.464 8.137-2.467-0.002-3.007 0.005-4.227-0.009-4.33l3.339-2c0.12-0.072 0.19-0.206 0.18-0.346s-0.098-0.262-0.227-0.316l-11.419-4.793v-3.106h17.508v21.347zM12.643 17.75c-2.063 0-6.034 0.266-7.76 1.393 0.011-3.446-0.12-3.222 0.305-3.514 1.072-0.789 4.137-1.34 7.455-1.34 1.447 0 7.765 0.398 7.765 1.735v3.119c-1.742-1.137-5.693-1.394-7.765-1.394zM13.015 2.071c0-0.59 0.48-1.069 1.069-1.069h15.371c0.59 0 1.067 0.486 1.067 1.069v2.513h-17.508v-2.513zM12.643 9.084l10.826 4.544-2.683 1.605c-1.426-1.414-6.144-1.689-8.143-1.689-2.002 0-6.72 0.275-8.143 1.689l-2.683-1.606 10.827-4.544zM4.883 20.219c0-0.602 2.665-1.725 7.76-1.725 5.098 0 7.765 1.123 7.765 1.725s-2.667 1.726-7.765 1.726c-5.095 0-7.76-1.123-7.76-1.726z"></path>
</svg>
